<svg xmlns="http://www.w3.org/2000/svg" viewBox="0 0 332 373" width="332" height="373">
<path fill="#1f2328" d="M286.85 14.11C288.04 14.66 289.37 14.85 290.66 14.65C295.88 13.76 302.51 12.16 310.57 9.86C319.25 7.36 327.26 12.17 325.96 21.69C325.18 27.3 321.28 31.02 314.26 32.85C313.98 32.93 313.73 33.07 313.52 33.27C313.32 33.48 313.17 33.73 313.09 34.01C313.02 34.29 313.02 34.58 313.09 34.86C313.17 35.14 313.31 35.39 313.52 35.59C338.42 60.66 337.66 97.02 311.31 120.87C309.45 122.55 307.52 124.04 305.53 125.35C305.24 125.54 305 125.8 304.84 126.11C304.69 126.43 304.63 126.78 304.65 127.13C305.1 133.13 305.91 146.34 305.53 154.15C302.81 211.28 278.35 256.31 232.13 289.24C222.22 296.3 212.82 301.92 203.94 306.09C203.53 306.28 203.19 306.61 202.99 307.02C202.79 307.43 202.74 307.89 202.84 308.34L210.13 340.72C210.22 341.11 210.44 341.47 210.75 341.72C211.07 341.97 211.46 342.11 211.86 342.11C221.18 342.25 256.88 347.38 248.02 364.73C242.44 375.64 231.42 367.16 223.4 364.91C211.41 361.53 198.74 362.14 187.56 367.52C182.15 370.11 178.87 371.67 177.73 372.2C176.58 372.73 175.3 372.98 174.02 372.93C172.75 372.88 171.49 372.53 170.37 371.9C156.17 363.89 138.74 360.9 124.34 369.97C123.16 370.71 121.84 371.21 120.47 371.43C119.09 371.64 117.68 371.58 116.33 371.24C114.98 370.9 113.72 370.29 112.61 369.45C111.5 368.6 110.58 367.54 109.89 366.32L109.87 366.25C108.52 363.88 108.17 361.07 108.86 358.43C109.56 355.79 111.26 353.53 113.6 352.13C120.46 348.03 126.84 345.59 132.75 344.81C132.95 344.79 133.13 344.72 133.3 344.62C133.47 344.51 133.61 344.38 133.72 344.22C133.84 344.06 133.91 343.88 133.95 343.68C133.99 343.49 133.99 343.29 133.94 343.1L129.31 322.49C129.23 322.14 129.04 321.82 128.76 321.59C128.49 321.37 128.14 321.24 127.78 321.23C114.88 320.98 101.18 319.27 86.69 316.1C86.26 316 85.8 316 85.36 316.09C84.93 316.19 84.51 316.37 84.15 316.64C69.93 327.26 51.08 338.13 37.22 341.66C27.47 344.16 11.3 345.15 15.3 329.65C17.37 321.67 21.9 311.21 28.89 298.28C28.99 298.09 29.03 297.88 29.01 297.67C28.99 297.45 28.91 297.25 28.77 297.08C28.64 296.92 28.46 296.79 28.26 296.73C28.06 296.66 27.84 296.65 27.63 296.71C19.17 299.14 10.49 300.42 1.58 300.55C1.36 300.56 1.16 300.52 0.96 300.44C0.76 300.36 0.59 300.23 0.44 300.09C0.29 299.93 0.18 299.75 0.1 299.55C0.02 299.36 -0.01 299.15 0 298.93C0.17 295.36 0.92 291.4 2.25 287.03C12.02 254.86 27.59 226.02 48.96 200.52C73.44 171.34 115.29 141.98 155.16 148.41C177.21 151.97 196.04 171.81 193.25 194.67C187.58 240.71 109.24 274.7 70.97 286.52C70.81 286.56 70.66 286.66 70.55 286.79C70.45 286.92 70.39 287.08 70.38 287.25C70.38 287.42 70.43 287.59 70.52 287.73C70.62 287.87 70.76 287.97 70.92 288.02C102.02 299.54 133.17 302 164.36 295.4C240.34 279.34 289.53 212.09 283.08 134.62C283.06 134.49 283.03 134.36 282.97 134.25C282.9 134.14 282.82 134.04 282.72 133.96C282.62 133.88 282.5 133.82 282.38 133.78C282.25 133.75 282.12 133.74 281.99 133.76C273.8 134.93 265.64 134.36 257.49 132.03C257.11 131.92 256.72 131.91 256.34 132.02C255.96 132.11 255.61 132.31 255.33 132.59L229.12 158.8C228.86 159.06 228.51 159.2 228.15 159.2C227.79 159.2 227.44 159.06 227.18 158.8L201.2 132.8C200.92 132.52 200.57 132.32 200.18 132.22C199.8 132.12 199.4 132.11 199.01 132.21C140.94 146.75 99.47 78.28 143.35 35.21C143.49 35.07 143.59 34.9 143.65 34.71C143.7 34.52 143.71 34.31 143.66 34.12C143.62 33.93 143.52 33.75 143.39 33.6C143.25 33.45 143.09 33.34 142.9 33.28C138.62 31.8 135.25 29.71 132.77 26.98C127.74 21.47 130.46 12.42 136.87 9.59C142.22 7.2 157.59 12.47 165.76 14.18C167.1 14.47 168.5 14.3 169.74 13.7C208.7 -4.7 247.74 -4.57 286.85 14.11ZM176.15 41.87C144.74 46.91 136.58 89.19 162.2 106.34C174.91 114.86 188.59 115.04 203.24 106.88C205.27 105.75 206.68 104.27 208.33 103.18C208.51 103.07 208.72 102.99 208.93 102.96C209.15 102.92 209.37 102.93 209.58 102.99C209.79 103.05 209.99 103.15 210.15 103.29C210.32 103.43 210.46 103.6 210.56 103.79C214.05 110.54 218.8 117.8 224.8 125.57C226.09 127.24 227.25 128.07 228.29 128.07C229.32 128.07 230.49 127.25 231.77 125.59C237.8 117.84 242.58 110.59 246.08 103.84C246.18 103.64 246.32 103.48 246.49 103.34C246.66 103.2 246.86 103.11 247.07 103.05C247.28 103 247.5 102.98 247.71 103.02C247.92 103.05 248.13 103.13 248.31 103.25C249.95 104.33 251.37 105.82 253.4 106.94C268.02 115.15 281.7 115 294.43 106.52C320.11 89.44 312.05 47.14 280.67 42.03C259.58 38.61 243.14 52.81 238.27 73.17C238.19 73.52 237.97 73.82 237.67 74.02C237.36 74.22 236.99 74.29 236.63 74.23C233.92 73.75 231.16 73.5 228.35 73.48C225.56 73.48 222.81 73.72 220.09 74.21C219.74 74.27 219.37 74.2 219.06 74C218.75 73.8 218.54 73.5 218.45 73.15C213.64 52.76 197.24 38.52 176.15 41.87ZM290.34 77.62C290.34 86.47 283.17 93.64 274.32 93.64C265.47 93.64 258.3 86.47 258.3 77.62C258.3 68.78 265.47 61.61 274.32 61.61C283.17 61.61 290.34 68.78 290.34 77.62ZM198.11 77.47C198.11 86.34 190.92 93.53 182.05 93.53C173.18 93.53 165.99 86.34 165.99 77.47C165.99 68.59 173.18 61.4 182.05 61.4C190.92 61.4 198.11 68.59 198.11 77.47Z"/>
</svg>
